# xmcd CD database file
#
# Track frame offsets:
#	150
#	24030
#	45190
#	67327
#	88902
#	113172
#	132502
#	152567
#	176632
#	196000
#
# Disc length: 2948 seconds
#
# Revision: 0
# Processed by: cddbd v1.5PL3 Copyright (c) Steve Scherf et al.
# Submitted via: CDex 1.51
#
DISCID=7c0b820a
DTITLE=伊勢正三 - garden
DYEAR=2003
DGENRE=
TTITLE0=Bayside eyed soul
TTITLE1=永遠のlaladox
TTITLE2=冬のソリスト
TTITLE3=南の魚のミステリー
TTITLE4=白い時刻
TTITLE5=闇の夜のハネムーン
TTITLE6=Cut&Paste
TTITLE7=夏ヤマメ
TTITLE8=君はベージュ
TTITLE9=君と歩いた青春
EXTD=YEAR: 2003
EXTT0=
EXTT1=
EXTT2=
EXTT3=
EXTT4=
EXTT5=
EXTT6=
EXTT7=
EXTT8=
EXTT9=
PLAYORDER=
